<svg xmlns="http://www.w3.org/2000/svg" version="1.0" preserveAspectRatio="xMidYMid meet" viewBox="153.9 439.07 793.7 331.78">

<g transform="translate(0.000000,1080.000000) scale(0.100000,-0.100000)" fill="#FFFFFF" stroke="none">
<path d="M2090 6398 c-108 -9 -250 -46 -324 -86 -201 -109 -270 -311 -165 -482 82 -133 345 -243 634 -266 105 -8 125 -16 125 -50 0 -19 -8 -28 -37 -41 -87 -36 -341 -26 -528 22 -100 25 -208 75 -224 102 -5 10 -11 16 -14 13 -2 -3 -7 -110 -11 -238 l-7 -232 28 -11 c120 -46 435 -100 618 -106 364 -13 611 77 710 259 25 45 30 67 33 144 5 100 -6 146 -45 204 -58 86 -214 152 -453 190 -223 35 -300 61 -300 100 0 30 36 51 106 62 137 21 436 -26 565 -90 l56 -27 7 125 c3 69 6 169 6 222 l0 97 -67 20 c-100 28 -159 41 -264 55 -84 12 -134 15 -304 20 -27 0 -93 -2 -145 -6z"/>
<path d="M8792 6399 c-146 -19 -256 -74 -351 -175 l-67 -72 -182 109 c-139 83 -190 109 -217 109 l-35 0 0 -660 0 -660 280 0 280 0 0 353 c0 199 4 367 10 386 15 53 56 105 103 131 50 29 135 32 183 7 44 -22 98 -89 112 -136 8 -26 12 -152 12 -390 l0 -351 278 0 278 0 -2 453 c-2 491 -3 500 -60 613 -54 106 -183 213 -307 253 -58 19 -198 43 -235 40 -9 -1 -46 -5 -80 -10z"/>
<path d="M3661 6389 c-305 -51 -536 -243 -617 -515 -25 -81 -25 -247 0 -329 70 -236 269 -421 533 -497 68 -20 101 -23 263 -23 208 0 304 15 425 66 117 50 110 27 80 250 -14 107 -28 204 -30 216 -5 21 -7 21 -68 -16 -215 -131 -404 -146 -554 -44 -45 30 -93 85 -93 107 0 3 226 6 501 6 l502 0 -6 113 c-8 181 -61 306 -182 432 -182 188 -476 280 -754 234z m258 -485 c42 -17 97 -67 117 -106 l15 -28 -236 0 c-188 0 -235 3 -235 13 0 7 16 32 35 54 72 85 196 112 304 67z"/>
<path d="M6828 6365 c-393 -75 -658 -395 -618 -747 34 -293 280 -537 609 -603 112 -23 315 -16 415 14 247 74 430 233 512 446 36 93 45 266 19 364 -49 188 -189 359 -366 445 -52 25 -130 55 -174 66 -105 28 -292 35 -397 15z m292 -493 c178 -89 151 -329 -44 -387 -63 -19 -99 -19 -162 0 -224 67 -215 348 13 411 63 17 125 10 193 -24z"/>
<path d="M4710 6060 l0 -250 261 0 c222 0 260 -2 256 -14 -3 -8 -132 -183 -286 -389 -275 -366 -315 -429 -258 -413 168 49 171 50 332 50 140 0 181 -4 325 -31 91 -18 208 -38 260 -44 126 -15 318 -5 445 23 l100 23 3 246 2 246 -67 -34 c-93 -45 -183 -57 -368 -49 -82 4 -153 10 -157 14 -4 4 116 190 267 414 185 272 275 415 275 432 l0 26 -695 0 -695 0 0 -250z"/>
<path d="M3890 4398 c-186 -53 -216 -357 -45 -456 34 -19 52 -22 116 -20 63 3 82 8 118 31 46 31 60 52 43 69 -9 9 -28 3 -73 -20 -68 -35 -103 -39 -152 -18 -140 58 -133 319 9 366 71 24 137 -7 154 -70 9 -33 15 -40 35 -40 24 0 25 2 25 75 0 58 -3 77 -15 81 -8 4 -21 1 -28 -4 -9 -8 -27 -7 -62 3 -55 17 -75 17 -125 3z"/>
<path d="M5355 4401 c-74 -19 -115 -65 -115 -130 0 -85 32 -112 160 -134 69 -12 88 -20 107 -41 28 -33 29 -56 3 -89 -37 -47 -124 -58 -182 -24 -11 7 -29 31 -39 55 -13 30 -24 42 -39 42 -20 0 -21 -5 -18 -82 3 -73 5 -83 22 -86 11 -3 25 3 32 13 11 14 16 15 36 4 37 -20 148 -17 188 6 53 32 75 69 74 126 -1 84 -45 114 -196 134 -26 3 -57 14 -69 24 -32 26 -30 75 5 109 22 23 35 27 80 27 58 0 86 -16 109 -64 14 -30 44 -39 53 -17 4 9 3 41 -1 71 -6 50 -9 55 -31 55 -13 0 -24 -5 -24 -10 0 -7 -6 -7 -17 -1 -27 14 -104 21 -138 12z"/>
<path d="M4217 4384 c-13 -13 -7 -24 18 -34 l25 -10 0 -148 c0 -136 2 -153 23 -192 30 -57 74 -80 152 -80 71 0 115 22 142 72 14 27 18 63 21 192 4 146 5 159 23 163 10 3 19 14 19 25 0 17 -7 19 -82 16 -66 -2 -83 -6 -83 -18 0 -10 13 -17 35 -20 l35 -5 3 -95 c5 -149 -5 -216 -37 -252 -49 -54 -142 -37 -178 33 -9 17 -12 68 -10 169 l2 145 30 5 c18 3 30 11 30 20 0 12 -17 16 -80 18 -45 1 -84 0 -88 -4z"/>
<path d="M4754 4379 c-11 -19 9 -28 71 -31 l60 -3 3 -182 2 -183 -57 0 c-65 0 -89 -10 -80 -34 6 -14 29 -16 167 -16 l161 0 -3 23 c-3 20 -9 22 -71 25 l-67 3 2 182 3 182 68 3 c59 3 67 5 67 22 0 19 -8 20 -159 20 -104 0 -162 -4 -167 -11z"/>
<path d="M5734 4379 c-11 -19 9 -28 71 -31 l60 -3 3 -182 2 -183 -57 0 c-65 0 -89 -10 -80 -34 6 -14 29 -16 167 -16 l161 0 -3 23 c-3 20 -9 22 -71 25 l-67 3 2 182 3 182 68 3 c59 3 67 5 67 22 0 19 -8 20 -159 20 -104 0 -162 -4 -167 -11z"/>
<path d="M6160 4370 c0 -16 7 -20 30 -20 l30 0 0 -184 c0 -175 -1 -184 -20 -189 -12 -3 -20 -14 -20 -26 0 -20 5 -21 91 -21 88 0 90 1 87 23 -2 18 -10 23 -45 25 l-43 3 0 160 c0 88 4 158 8 155 5 -3 57 -89 116 -191 93 -159 111 -185 132 -185 l24 0 0 210 0 210 26 10 c50 19 21 35 -69 38 -82 3 -87 2 -87 -18 0 -17 6 -20 40 -20 l40 0 0 -162 c0 -113 -3 -158 -10 -148 -6 8 -54 90 -106 183 l-96 167 -64 0 c-57 0 -64 -2 -64 -20z"/>
<path d="M6660 4370 c0 -16 7 -20 35 -20 l35 0 0 -185 c0 -176 -1 -185 -19 -185 -33 0 -51 -11 -51 -31 0 -19 9 -19 198 -17 l197 3 0 75 c0 70 -1 75 -22 78 -22 3 -23 0 -23 -52 l0 -56 -110 0 -110 0 0 90 0 90 54 0 c52 0 55 -1 58 -27 2 -17 10 -29 21 -31 15 -3 17 6 17 78 0 72 -2 81 -17 78 -11 -2 -19 -14 -21 -31 -3 -26 -6 -27 -58 -27 l-55 0 3 73 3 72 105 0 105 0 3 -53 c3 -48 5 -53 25 -50 20 3 22 9 22 73 l0 70 -197 3 c-193 2 -198 2 -198 -18z"/>
<path d="M6645 3699 c-103 -59 -100 -57 -92 -65 6 -6 181 49 207 66 11 7 12 14 4 27 -6 9 -15 18 -20 20 -5 2 -49 -20 -99 -48z"/>
<path d="M4582 3563 c-67 -33 -96 -101 -69 -166 19 -43 69 -72 147 -82 76 -10 118 -29 130 -60 21 -56 -25 -107 -103 -112 -64 -5 -106 18 -133 73 -21 41 -32 48 -53 35 -11 -7 -12 -23 -5 -83 8 -65 11 -73 32 -76 12 -2 24 3 28 11 4 12 11 12 42 1 82 -29 185 -6 230 51 17 21 22 41 22 82 0 46 -4 59 -28 83 -27 27 -52 35 -176 55 -43 7 -86 44 -86 73 0 31 38 71 79 82 58 15 111 -5 136 -53 18 -34 47 -48 59 -29 2 4 2 36 -1 70 -5 56 -8 62 -29 62 -12 0 -24 -5 -26 -11 -3 -9 -9 -9 -25 0 -32 16 -133 13 -171 -6z"/>
<path d="M3530 3551 c0 -24 19 -31 86 -31 l54 0 -2 -182 -3 -183 -67 -3 c-60 -3 -68 -5 -68 -22 0 -19 8 -20 165 -20 157 0 165 1 165 20 0 17 -8 19 -67 22 l-68 3 -3 183 -2 182 54 0 c67 0 86 7 86 31 0 18 -10 19 -165 19 -155 0 -165 -1 -165 -19z"/>
<path d="M3963 3554 c-7 -18 12 -34 40 -34 16 0 17 -16 17 -185 0 -178 -1 -185 -20 -185 -13 0 -20 -7 -20 -20 0 -19 7 -20 90 -20 82 0 90 2 90 19 0 16 -8 20 -42 23 l-43 3 -3 165 c-1 103 1 161 7 155 5 -6 56 -91 114 -190 89 -154 109 -180 131 -183 l26 -3 0 209 0 210 26 6 c17 5 24 12 22 24 -3 14 -17 17 -91 20 -80 3 -87 1 -87 -17 0 -21 18 -31 56 -31 l24 0 0 -155 c0 -85 -2 -155 -4 -155 -3 0 -51 81 -107 180 l-103 180 -58 0 c-45 0 -60 -4 -65 -16z"/>
<path d="M4960 3552 c0 -22 18 -32 56 -32 l24 0 -2 -182 -3 -183 -37 -3 c-30 -3 -38 -7 -38 -23 0 -18 8 -19 125 -19 117 0 125 1 125 20 0 16 -8 19 -57 22 l-58 3 -3 61 -3 61 80 6 c136 11 180 43 188 135 3 35 -1 55 -16 79 -38 61 -59 68 -228 71 -147 4 -153 3 -153 -16z m290 -47 c17 -9 33 -28 40 -50 24 -72 -36 -125 -142 -125 l-58 0 0 95 0 95 65 0 c39 0 78 -6 95 -15z"/>
<path d="M5490 3551 c0 -24 19 -31 86 -31 l54 0 -2 -182 -3 -183 -67 -3 c-60 -3 -68 -5 -68 -23 0 -19 6 -19 163 -17 136 3 162 5 162 18 0 11 -16 16 -65 20 l-65 5 -3 183 -2 182 57 0 c65 0 89 10 80 34 -6 14 -29 16 -167 16 -150 0 -160 -1 -160 -19z"/>
<path d="M5923 3554 c-7 -20 13 -34 50 -34 l27 0 -2 -182 -3 -183 -35 -5 c-22 -3 -35 -10 -35 -20 0 -12 19 -16 98 -18 91 -3 97 -1 97 17 0 15 -8 20 -32 23 l-33 3 -3 78 -3 77 39 0 c52 0 77 -22 142 -119 52 -81 53 -81 96 -81 37 0 44 3 44 19 0 13 -8 21 -22 23 -28 4 -146 168 -122 168 9 0 31 15 50 34 30 30 34 41 34 84 0 35 -6 57 -22 77 -36 46 -73 55 -223 55 -115 0 -137 -2 -142 -16z m308 -63 c10 -13 19 -36 19 -51 0 -15 -9 -38 -19 -51 -17 -21 -30 -24 -100 -27 l-81 -4 0 82 0 82 81 -4 c70 -3 83 -6 100 -27z"/>
<path d="M6422 3548 c2 -18 11 -24 36 -26 l32 -3 -2 -182 -3 -182 -32 -3 c-25 -2 -33 -8 -33 -23 0 -18 9 -19 195 -19 l195 0 0 75 c0 60 -3 77 -16 82 -23 8 -34 -14 -34 -70 l0 -48 -107 3 -108 3 0 90 0 90 55 0 c53 0 55 -1 58 -28 3 -20 8 -27 20 -25 25 5 25 151 0 156 -12 2 -17 -5 -20 -25 -3 -27 -5 -28 -58 -28 l-55 0 -3 68 -3 67 110 0 110 0 3 -47 c3 -41 6 -48 26 -51 21 -3 22 0 22 72 l0 76 -196 0 -195 0 3 -22z"/>
<path d="M6912 3548 c2 -18 11 -24 36 -26 l32 -3 -2 -182 -3 -182 -32 -3 c-25 -2 -33 -8 -33 -23 0 -18 9 -19 195 -19 l195 0 0 75 c0 60 -3 77 -16 82 -23 8 -34 -14 -34 -70 l0 -48 -107 3 -108 3 0 90 0 90 55 0 c53 0 55 -1 58 -28 3 -20 8 -27 20 -25 25 5 25 151 0 156 -12 2 -17 -5 -20 -25 -3 -27 -5 -28 -58 -28 l-55 0 -3 68 -3 67 110 0 110 0 3 -47 c3 -41 6 -48 26 -51 21 -3 22 0 22 72 l0 76 -196 0 -195 0 3 -22z"/>
</g>
</svg>