<svg width="1920" height="1080" viewBox="0 0 1920 1080" fill="none" xmlns="http://www.w3.org/2000/svg">
<g clip-path="url(#clip0_21_649)">
<rect width="1920" height="1080" fill="white"/>
<g clip-path="url(#clip1_21_649)">
<path d="M2638 -460H-362V1540H2638V-460Z" fill="#3B48B0"/>
<path d="M2638 -460H-362V1540H2638V-460Z" fill="url(#paint0_radial_21_649)"/>
<path d="M2638 -460H-362V1540H2638V-460Z" fill="url(#paint1_radial_21_649)"/>
<path d="M2638 -460H-362V1540H2638V-460Z" fill="url(#paint2_radial_21_649)"/>
<path d="M2638 -460H-362V1540H2638V-460Z" fill="url(#paint3_radial_21_649)"/>
<path d="M2638 -460H-362V1540H2638V-460Z" fill="url(#paint4_radial_21_649)"/>
<path d="M2638 -460H-362V1540H2638V-460Z" fill="url(#paint5_radial_21_649)"/>
<path d="M2638 -460H-362V1540H2638V-460Z" fill="url(#paint6_radial_21_649)"/>
</g>
</g>
<defs>

<!-- sezon 851d0f -->
<!-- beige f2e4d8 -->
<!-- orange e24716 -->
<!-- purple 9094c7 -->
<radialGradient id="paint0_radial_21_649" cx="0" cy="0" r="1" gradientUnits="userSpaceOnUse" gradientTransform="translate(-122 -400) scale(3000 2000)">
<stop stop-color="#f2e4d8"/>
<stop offset="0.5" stop-color="#f2e4d8" stop-opacity="0"/>
</radialGradient>
<radialGradient id="paint1_radial_21_649" cx="0" cy="0" r="1" gradientUnits="userSpaceOnUse" gradientTransform="translate(2008 380) scale(3000 2000)">
<stop stop-color="#f2e4d8"/>
<stop offset="0.5" stop-color="#f2e4d8" stop-opacity="0"/>
</radialGradient>
<radialGradient id="paint2_radial_21_649" cx="0" cy="0" r="1" gradientUnits="userSpaceOnUse" gradientTransform="translate(1408 -40) scale(3000 2000)">
<stop stop-color="#f2e4d8"/>
<stop offset="0.5" stop-color="#9094c7" stop-opacity="0"/>
</radialGradient>
<radialGradient id="paint3_radial_21_649" cx="0" cy="0" r="1" gradientUnits="userSpaceOnUse" gradientTransform="translate(-242 1480) scale(3000 2000)">
<stop stop-color="#f2e4d8"/>
<stop offset="0.5" stop-color="#9094c7" stop-opacity="0"/>
</radialGradient>
<radialGradient id="paint4_radial_21_649" cx="0" cy="0" r="1" gradientUnits="userSpaceOnUse" gradientTransform="translate(328 560) scale(3000 2000)">
<stop stop-color="#f2e4d8"/>
<stop offset="0.5" stop-color="#9094c7" stop-opacity="0"/>
</radialGradient>
<radialGradient id="paint5_radial_21_649" cx="0" cy="0" r="1" gradientUnits="userSpaceOnUse" gradientTransform="translate(2008 340) scale(3000 2000)">
<stop stop-color="#f2e4d8"/>
<stop offset="0.5" stop-color="#9094c7" stop-opacity="0"/>
</radialGradient>
<radialGradient id="paint6_radial_21_649" cx="0" cy="0" r="1" gradientUnits="userSpaceOnUse" gradientTransform="translate(298 1440) scale(3000 2000)">
<stop stop-color="#f2e4d8"/>
<stop offset="0.5" stop-color="#f2e4d8" stop-opacity="0"/>
</radialGradient>
<clipPath id="clip0_21_649">
<rect width="1920" height="1080" fill="white"/>
</clipPath>
<clipPath id="clip1_21_649">
<rect width="3000" height="2000" fill="white" transform="translate(-362 -460)"/>
</clipPath>
</defs>
</svg>
